<mxfile host="65bd71144e">
    <diagram id="6veI0Qu2SPCPq9zcb_WV" name="Page-1">
        <mxGraphModel dx="3718" dy="2870" grid="0" gridSize="10" guides="1" tooltips="1" connect="1" arrows="1" fold="1" page="0" pageScale="1" pageWidth="827" pageHeight="1169" math="0" shadow="0">
            <root>
                <mxCell id="0"/>
                <mxCell id="1" parent="0"/>
                <mxCell id="56" style="edgeStyle=none;rounded=0;html=1;exitX=0.5;exitY=1;exitDx=0;exitDy=0;fontFamily=Helvetica;fontSize=9;fontColor=#000000;endArrow=none;endFill=0;entryX=0.75;entryY=0;entryDx=0;entryDy=0;" parent="1" source="2" target="6" edge="1">
                    <mxGeometry relative="1" as="geometry"/>
                </mxCell>
                <mxCell id="82" style="edgeStyle=none;rounded=0;html=1;exitX=0;exitY=0.75;exitDx=0;exitDy=0;entryX=0;entryY=0.5;entryDx=0;entryDy=0;fontFamily=Helvetica;fontSize=9;fontColor=#000000;endArrow=none;endFill=0;" parent="1" source="2" target="3" edge="1">
                    <mxGeometry relative="1" as="geometry">
                        <Array as="points">
                            <mxPoint x="-1440" y="-980"/>
                            <mxPoint x="-1440" y="100"/>
                        </Array>
                    </mxGeometry>
                </mxCell>
                <mxCell id="2" value="Attack&lt;br style=&quot;font-size: 9px;&quot;&gt;" style="whiteSpace=wrap;html=1;aspect=fixed;labelBackgroundColor=none;fontFamily=Helvetica;fontSize=9;fontColor=#000000;" parent="1" vertex="1">
                    <mxGeometry x="-340" y="-1040" width="80" height="80" as="geometry"/>
                </mxCell>
                <mxCell id="3" value="Castle&lt;br style=&quot;font-size: 9px;&quot;&gt;" style="whiteSpace=wrap;html=1;aspect=fixed;fontFamily=Helvetica;fontSize=9;fontColor=#000000;labelBackgroundColor=none;" parent="1" vertex="1">
                    <mxGeometry x="-520" y="60" width="80" height="80" as="geometry"/>
                </mxCell>
                <mxCell id="4" value="Soldier&lt;br style=&quot;font-size: 9px;&quot;&gt;" style="whiteSpace=wrap;html=1;aspect=fixed;fontFamily=Helvetica;fontSize=9;fontColor=#000000;labelBackgroundColor=none;" parent="1" vertex="1">
                    <mxGeometry x="-280" y="60" width="80" height="80" as="geometry"/>
                </mxCell>
                <mxCell id="117" style="edgeStyle=none;html=1;exitX=0.25;exitY=1;exitDx=0;exitDy=0;fontFamily=Helvetica;fontSize=9;fontColor=#000000;endArrow=none;endFill=0;rounded=0;" edge="1" parent="1" source="5">
                    <mxGeometry relative="1" as="geometry">
                        <mxPoint x="-200" y="80" as="targetPoint"/>
                        <Array as="points">
                            <mxPoint x="483" y="80"/>
                        </Array>
                    </mxGeometry>
                </mxCell>
                <mxCell id="5" value="Menu" style="whiteSpace=wrap;html=1;aspect=fixed;fontFamily=Helvetica;fontSize=9;fontColor=#000000;labelBackgroundColor=none;" parent="1" vertex="1">
                    <mxGeometry x="463" y="-410" width="80" height="80" as="geometry"/>
                </mxCell>
                <mxCell id="18" style="edgeStyle=none;html=1;exitX=0.285;exitY=1.001;exitDx=0;exitDy=0;entryX=0.5;entryY=0;entryDx=0;entryDy=0;fontFamily=Helvetica;fontSize=9;fontColor=#000000;endArrow=none;endFill=0;exitPerimeter=0;" parent="1" source="6" target="3" edge="1">
                    <mxGeometry relative="1" as="geometry"/>
                </mxCell>
                <mxCell id="41" style="edgeStyle=none;html=1;exitX=1;exitY=0.75;exitDx=0;exitDy=0;fontFamily=Helvetica;fontSize=9;fontColor=#000000;endArrow=none;endFill=0;" parent="1" source="6" target="5" edge="1">
                    <mxGeometry relative="1" as="geometry"/>
                </mxCell>
                <mxCell id="49" style="edgeStyle=none;html=1;exitX=1;exitY=0;exitDx=0;exitDy=0;entryX=0;entryY=0.5;entryDx=0;entryDy=0;fontFamily=Helvetica;fontSize=9;fontColor=#000000;endArrow=none;endFill=0;rounded=0;" parent="1" source="6" target="7" edge="1">
                    <mxGeometry relative="1" as="geometry">
                        <Array as="points">
                            <mxPoint x="-200" y="-600"/>
                        </Array>
                    </mxGeometry>
                </mxCell>
                <mxCell id="6" value="Game&lt;br style=&quot;font-size: 9px;&quot;&gt;" style="rounded=0;whiteSpace=wrap;html=1;fontFamily=Helvetica;fontSize=9;fontColor=#000000;labelBackgroundColor=none;" parent="1" vertex="1">
                    <mxGeometry x="-590" y="-530" width="390" height="210" as="geometry"/>
                </mxCell>
                <mxCell id="70" style="edgeStyle=none;rounded=0;html=1;exitX=0.452;exitY=0.002;exitDx=0;exitDy=0;entryX=1;entryY=0.25;entryDx=0;entryDy=0;fontFamily=Helvetica;fontSize=9;fontColor=#000000;endArrow=none;endFill=0;exitPerimeter=0;" parent="1" source="7" target="2" edge="1">
                    <mxGeometry relative="1" as="geometry">
                        <Array as="points">
                            <mxPoint x="500" y="-1020"/>
                        </Array>
                    </mxGeometry>
                </mxCell>
                <mxCell id="120" style="edgeStyle=none;rounded=0;html=1;exitX=0.25;exitY=1;exitDx=0;exitDy=0;entryX=0.251;entryY=-0.026;entryDx=0;entryDy=0;entryPerimeter=0;fontFamily=Helvetica;fontSize=9;fontColor=#000000;endArrow=none;endFill=0;" edge="1" parent="1" source="7" target="5">
                    <mxGeometry relative="1" as="geometry"/>
                </mxCell>
                <mxCell id="7" value="Defense" style="whiteSpace=wrap;html=1;aspect=fixed;labelBackgroundColor=none;fontFamily=Helvetica;fontSize=9;fontColor=#000000;" parent="1" vertex="1">
                    <mxGeometry x="463" y="-640.5" width="80" height="80" as="geometry"/>
                </mxCell>
                <mxCell id="8" style="edgeStyle=none;rounded=0;html=1;fontFamily=Helvetica;fontSize=9;fontColor=#000000;endArrow=none;endFill=0;labelBackgroundColor=none;" parent="1" edge="1">
                    <mxGeometry relative="1" as="geometry">
                        <mxPoint x="-530" y="-531" as="sourcePoint"/>
                        <mxPoint x="-510" y="-320" as="targetPoint"/>
                        <Array as="points">
                            <mxPoint x="-530" y="-650"/>
                            <mxPoint x="-1060" y="-650"/>
                            <mxPoint x="-1060" y="-300"/>
                            <mxPoint x="-510" y="-300"/>
                        </Array>
                    </mxGeometry>
                </mxCell>
                <mxCell id="9" value="" style="endArrow=classic;html=1;rounded=0;fontFamily=Helvetica;fontSize=9;fontColor=#000000;labelBackgroundColor=none;align=left;" parent="1" edge="1">
                    <mxGeometry width="50" height="50" relative="1" as="geometry">
                        <mxPoint x="-1047" y="-640" as="sourcePoint"/>
                        <mxPoint x="-1047" y="-311" as="targetPoint"/>
                    </mxGeometry>
                </mxCell>
                <mxCell id="10" style="edgeStyle=none;rounded=1;html=1;endArrow=none;endFill=0;labelBackgroundColor=none;fontFamily=Helvetica;fontSize=9;fontColor=#000000;" parent="1" edge="1">
                    <mxGeometry relative="1" as="geometry">
                        <mxPoint x="-441.00000000000017" y="-670" as="targetPoint"/>
                        <mxPoint x="-441.00000000000017" y="-530" as="sourcePoint"/>
                    </mxGeometry>
                </mxCell>
                <mxCell id="11" value="" style="endArrow=classic;html=1;rounded=0;labelBackgroundColor=none;fontFamily=Helvetica;fontSize=9;fontColor=#000000;" parent="1" edge="1">
                    <mxGeometry width="50" height="50" relative="1" as="geometry">
                        <mxPoint x="-430.41" y="-650" as="sourcePoint"/>
                        <mxPoint x="-430.41" y="-540" as="targetPoint"/>
                    </mxGeometry>
                </mxCell>
                <mxCell id="12" value="Time.tick()" style="edgeLabel;html=1;align=center;verticalAlign=middle;resizable=0;points=[];fontSize=9;fontFamily=Helvetica;fontColor=#000000;labelBackgroundColor=none;" parent="11" vertex="1" connectable="0">
                    <mxGeometry x="-0.0933" relative="1" as="geometry">
                        <mxPoint x="30" as="offset"/>
                    </mxGeometry>
                </mxCell>
                <mxCell id="15" value="&lt;font style=&quot;font-size: 9px;&quot;&gt;&lt;font style=&quot;font-size: 9px;&quot;&gt;1. self.optimize_reset()&lt;br style=&quot;font-size: 9px;&quot;&gt;&lt;font style=&quot;font-size: 9px;&quot;&gt;4. b =&amp;nbsp;&lt;/font&gt;&lt;/font&gt;&lt;font style=&quot;font-size: 9px;&quot;&gt;if&lt;span style=&quot;background-color: rgb(255, 255, 255); font-size: 9px;&quot;&gt; &lt;/span&gt;self&lt;span style=&quot;background-color: rgb(255, 255, 255); font-size: 9px;&quot;&gt;.is_time_to_create(): boolean&lt;br style=&quot;font-size: 9px;&quot;&gt;&lt;/span&gt;&lt;/font&gt;&lt;/font&gt;" style="text;html=1;strokeColor=none;fillColor=none;align=left;verticalAlign=middle;whiteSpace=wrap;rounded=0;fontFamily=Helvetica;fontSize=9;fontColor=#000000;" parent="1" vertex="1">
                    <mxGeometry x="-1040" y="-642" width="440" height="30" as="geometry"/>
                </mxCell>
                <mxCell id="19" value="" style="endArrow=classic;html=1;fontFamily=Helvetica;fontSize=9;fontColor=#000000;" parent="1" edge="1">
                    <mxGeometry width="50" height="50" relative="1" as="geometry">
                        <mxPoint x="-490" y="-270" as="sourcePoint"/>
                        <mxPoint x="-490" y="30" as="targetPoint"/>
                    </mxGeometry>
                </mxCell>
                <mxCell id="20" value="&lt;br style=&quot;font-size: 9px; font-style: normal; font-weight: 400; letter-spacing: normal; text-indent: 0px; text-transform: none; word-spacing: 0px; background-color: rgb(248, 249, 250);&quot;&gt;&lt;span style=&quot;font-size: 9px; font-style: normal; font-weight: 400; letter-spacing: normal; text-indent: 0px; text-transform: none; word-spacing: 0px; background-color: rgb(248, 249, 250);&quot;&gt;2. a = is_time_to_gain_hp(self._clock.get_time(),&amp;nbsp;self._hp_wait_time): boolean&lt;/span&gt;" style="text;whiteSpace=wrap;html=1;fontSize=9;fontFamily=Helvetica;fontColor=#000000;align=left;" parent="1" vertex="1">
                    <mxGeometry x="-873" y="-240" width="348" height="40" as="geometry"/>
                </mxCell>
                <mxCell id="21" value="&lt;br style=&quot;font-size: 9px; font-style: normal; font-weight: 400; letter-spacing: normal; text-indent: 0px; text-transform: none; word-spacing: 0px; background-color: rgb(248, 249, 250);&quot;&gt;&lt;span style=&quot;font-size: 9px; font-style: normal; font-weight: 400; letter-spacing: normal; text-indent: 0px; text-transform: none; word-spacing: 0px; background-color: rgb(248, 249, 250);&quot;&gt;3. self._castle.gain_hp()&lt;/span&gt;" style="text;whiteSpace=wrap;html=1;fontSize=9;fontFamily=Helvetica;fontColor=#000000;align=left;" parent="1" vertex="1">
                    <mxGeometry x="-873" y="-226" width="420" height="40" as="geometry"/>
                </mxCell>
                <mxCell id="22" value="&lt;p style=&quot;margin-top: 0pt; margin-bottom: 0pt; margin-left: 0in; direction: ltr; unicode-bidi: embed; word-break: normal; font-size: 9px;&quot;&gt;&lt;span style=&quot;font-size: 9px;&quot;&gt;&lt;font style=&quot;font-size: 9px;&quot;&gt;[a == True]&lt;/font&gt;&lt;/span&gt;&lt;/p&gt;" style="text;whiteSpace=wrap;html=1;fontSize=9;fontFamily=Helvetica;align=left;direction=east;rotation=0;labelBackgroundColor=none;fontColor=#000000;" parent="1" vertex="1">
                    <mxGeometry x="-851" y="-203" width="130" height="30" as="geometry"/>
                </mxCell>
                <mxCell id="23" value="&lt;font style=&quot;font-size: 9px;&quot;&gt;&lt;span style=&quot;font-size: 9px;&quot;&gt;5.self.attack_insertion_to_objectlist()&lt;/span&gt;&lt;br style=&quot;font-size: 9px;&quot;&gt;&lt;/font&gt;&lt;font style=&quot;font-size: 9px;&quot;&gt;&lt;br style=&quot;font-size: 9px;&quot;&gt;&lt;/font&gt;" style="text;html=1;strokeColor=none;fillColor=none;align=left;verticalAlign=middle;whiteSpace=wrap;rounded=0;labelBackgroundColor=none;fontFamily=Helvetica;fontSize=9;fontColor=#000000;" parent="1" vertex="1">
                    <mxGeometry x="-1039" y="-612" width="330" height="20" as="geometry"/>
                </mxCell>
                <mxCell id="24" value="&lt;span style=&quot;font-size: 9px;&quot;&gt;6. self.optimize()&amp;nbsp;&amp;nbsp;&lt;/span&gt;&lt;font style=&quot;font-size: 9px;&quot;&gt;&lt;br style=&quot;font-size: 9px;&quot;&gt;&lt;/font&gt;" style="text;html=1;strokeColor=none;fillColor=none;align=left;verticalAlign=middle;whiteSpace=wrap;rounded=0;labelBackgroundColor=none;fontFamily=Helvetica;fontSize=9;fontColor=#000000;" parent="1" vertex="1">
                    <mxGeometry x="-1038" y="-596" width="122" height="15" as="geometry"/>
                </mxCell>
                <mxCell id="25" value="&lt;p style=&quot;margin-top: 0pt; margin-bottom: 0pt; margin-left: 0in; direction: ltr; unicode-bidi: embed; word-break: normal; font-size: 9px;&quot;&gt;&lt;span style=&quot;font-size: 9px;&quot;&gt;&lt;font style=&quot;font-size: 9px;&quot;&gt;[b == True]&lt;/font&gt;&lt;/span&gt;&lt;/p&gt;" style="text;whiteSpace=wrap;html=1;fontSize=9;fontFamily=Helvetica;align=left;direction=east;rotation=0;labelBackgroundColor=none;fontColor=#000000;" parent="1" vertex="1">
                    <mxGeometry x="-1022" y="-589" width="62" height="30" as="geometry"/>
                </mxCell>
                <mxCell id="26" value="&lt;p style=&quot;margin-top: 0pt; margin-bottom: 0pt; margin-left: 0in; direction: ltr; unicode-bidi: embed; word-break: normal; font-size: 9px;&quot;&gt;&lt;span style=&quot;font-size: 9px;&quot;&gt;&lt;font style=&quot;font-size: 9px;&quot;&gt;[b == True]&lt;/font&gt;&lt;/span&gt;&lt;/p&gt;" style="text;whiteSpace=wrap;html=1;fontSize=9;fontFamily=Helvetica;align=left;direction=east;rotation=0;labelBackgroundColor=none;fontColor=#000000;" parent="1" vertex="1">
                    <mxGeometry x="-1022" y="-609" width="130" height="22.5" as="geometry"/>
                </mxCell>
                <mxCell id="27" value="&lt;font style=&quot;font-size: 9px;&quot;&gt;7. c = i&lt;span style=&quot;font-size: 9px;&quot;&gt;s_time_to_move(&lt;/span&gt;self&lt;span style=&quot;font-size: 9px;&quot;&gt;._clock.get_time(), &lt;/span&gt;self&lt;span style=&quot;font-size: 9px;&quot;&gt;._inter_move_wait_time): boolean&lt;/span&gt;&lt;/font&gt;" style="text;html=1;strokeColor=none;fillColor=none;align=left;verticalAlign=middle;whiteSpace=wrap;rounded=0;labelBackgroundColor=none;fontFamily=Helvetica;fontSize=9;fontColor=#000000;" parent="1" vertex="1">
                    <mxGeometry x="-870" y="-195" width="377" height="30" as="geometry"/>
                </mxCell>
                <mxCell id="31" value="&lt;div style=&quot;font-size: 9px;&quot;&gt;&lt;span style=&quot;font-size: 9px;&quot;&gt;8.&amp;nbsp;&lt;/span&gt;&lt;span style=&quot;font-size: 9px;&quot;&gt;move(Game._window_width, Game._window_height)&lt;/span&gt;&lt;/div&gt;" style="text;html=1;strokeColor=none;fillColor=none;align=left;verticalAlign=middle;whiteSpace=wrap;rounded=0;labelBackgroundColor=none;fontFamily=Helvetica;fontSize=9;fontColor=#000000;labelBorderColor=none;" parent="1" vertex="1">
                    <mxGeometry x="-871" y="-182" width="470" height="30" as="geometry"/>
                </mxCell>
                <mxCell id="32" value="&lt;p style=&quot;margin-top: 0pt; margin-bottom: 0pt; margin-left: 0in; direction: ltr; unicode-bidi: embed; word-break: normal; font-size: 9px;&quot;&gt;&lt;span style=&quot;font-size: 9px;&quot;&gt;&lt;font style=&quot;font-size: 9px;&quot;&gt;[c == True]&lt;/font&gt;&lt;/span&gt;&lt;/p&gt;" style="text;whiteSpace=wrap;html=1;fontSize=9;fontFamily=Helvetica;align=left;direction=east;rotation=0;labelBackgroundColor=none;fontColor=#000000;" parent="1" vertex="1">
                    <mxGeometry x="-851" y="-165" width="49" height="30" as="geometry"/>
                </mxCell>
                <mxCell id="33" value="&lt;font style=&quot;font-size: 9px;&quot;&gt;9. c = i&lt;span style=&quot;font-size: 9px;&quot;&gt;s_time_to_move(&lt;/span&gt;self&lt;span style=&quot;font-size: 9px;&quot;&gt;._clock.get_time(), &lt;/span&gt;self&lt;span style=&quot;font-size: 9px;&quot;&gt;._inter_move_wait_time): boolean&lt;/span&gt;&lt;/font&gt;" style="text;html=1;strokeColor=none;fillColor=none;align=left;verticalAlign=middle;whiteSpace=wrap;rounded=0;labelBackgroundColor=none;fontFamily=Helvetica;fontSize=9;fontColor=#000000;" parent="1" vertex="1">
                    <mxGeometry x="-220" y="-210" width="407" height="30" as="geometry"/>
                </mxCell>
                <mxCell id="34" style="edgeStyle=none;html=1;exitX=0.285;exitY=1.001;exitDx=0;exitDy=0;entryX=0.5;entryY=0;entryDx=0;entryDy=0;fontFamily=Helvetica;fontSize=9;fontColor=#000000;endArrow=none;endFill=0;exitPerimeter=0;" parent="1" edge="1">
                    <mxGeometry relative="1" as="geometry">
                        <mxPoint x="-228.84999999999945" y="-320.89" as="sourcePoint"/>
                        <mxPoint x="-230" y="58.9" as="targetPoint"/>
                    </mxGeometry>
                </mxCell>
                <mxCell id="35" value="" style="endArrow=classic;html=1;fontFamily=Helvetica;fontSize=9;fontColor=#000000;" parent="1" edge="1">
                    <mxGeometry width="50" height="50" relative="1" as="geometry">
                        <mxPoint x="-221" y="-272.1" as="sourcePoint"/>
                        <mxPoint x="-221" y="27.9" as="targetPoint"/>
                    </mxGeometry>
                </mxCell>
                <mxCell id="39" value="&lt;div style=&quot;font-size: 9px;&quot;&gt;&lt;span style=&quot;font-size: 9px;&quot;&gt;10.&amp;nbsp;&lt;/span&gt;&lt;span style=&quot;font-size: 9px;&quot;&gt;move(Game._window_width, Game._window_height)&lt;/span&gt;&lt;/div&gt;" style="text;html=1;strokeColor=none;fillColor=none;align=left;verticalAlign=middle;whiteSpace=wrap;rounded=0;labelBackgroundColor=none;fontFamily=Helvetica;fontSize=9;fontColor=#000000;labelBorderColor=none;" parent="1" vertex="1">
                    <mxGeometry x="-221" y="-193.5" width="274" height="30" as="geometry"/>
                </mxCell>
                <mxCell id="40" value="&lt;p style=&quot;margin-top: 0pt; margin-bottom: 0pt; margin-left: 0in; direction: ltr; unicode-bidi: embed; word-break: normal; font-size: 9px;&quot;&gt;&lt;span style=&quot;font-size: 9px;&quot;&gt;&lt;font style=&quot;font-size: 9px;&quot;&gt;[c == True]&lt;/font&gt;&lt;/span&gt;&lt;/p&gt;" style="text;whiteSpace=wrap;html=1;fontSize=9;fontFamily=Helvetica;align=left;direction=east;rotation=0;labelBackgroundColor=none;fontColor=#000000;" parent="1" vertex="1">
                    <mxGeometry x="-149" y="-180" width="59" height="20" as="geometry"/>
                </mxCell>
                <mxCell id="42" value="" style="endArrow=classic;html=1;fontFamily=Helvetica;fontSize=9;fontColor=#000000;" parent="1" edge="1">
                    <mxGeometry width="50" height="50" relative="1" as="geometry">
                        <mxPoint x="-150" y="-380" as="sourcePoint"/>
                        <mxPoint x="310" y="-380" as="targetPoint"/>
                    </mxGeometry>
                </mxCell>
                <mxCell id="43" value="&lt;font style=&quot;font-size: 9px;&quot;&gt;11. c = i&lt;span style=&quot;font-size: 9px;&quot;&gt;s_time_to_move(&lt;/span&gt;self&lt;span style=&quot;font-size: 9px;&quot;&gt;._clock.get_time(), &lt;/span&gt;self&lt;span style=&quot;font-size: 9px;&quot;&gt;._inter_move_wait_time): boolean&lt;/span&gt;&lt;/font&gt;" style="text;html=1;strokeColor=none;fillColor=none;align=left;verticalAlign=middle;whiteSpace=wrap;rounded=0;labelBackgroundColor=none;fontFamily=Helvetica;fontSize=9;fontColor=#000000;" parent="1" vertex="1">
                    <mxGeometry x="-13" y="-439" width="407" height="30" as="geometry"/>
                </mxCell>
                <mxCell id="44" value="&lt;div style=&quot;font-size: 9px;&quot;&gt;&lt;span style=&quot;font-size: 9px;&quot;&gt;12.&amp;nbsp;&lt;/span&gt;&lt;span style=&quot;font-size: 9px;&quot;&gt;move(Game._window_width, Game._window_height)&lt;/span&gt;&lt;/div&gt;" style="text;html=1;strokeColor=none;fillColor=none;align=left;verticalAlign=middle;whiteSpace=wrap;rounded=0;labelBackgroundColor=none;fontFamily=Helvetica;fontSize=9;fontColor=#000000;labelBorderColor=none;" parent="1" vertex="1">
                    <mxGeometry x="-13" y="-422.5" width="470" height="30" as="geometry"/>
                </mxCell>
                <mxCell id="45" value="&lt;p style=&quot;margin-top: 0pt; margin-bottom: 0pt; margin-left: 0in; direction: ltr; unicode-bidi: embed; word-break: normal; font-size: 9px;&quot;&gt;&lt;span style=&quot;font-size: 9px;&quot;&gt;&lt;font style=&quot;font-size: 9px;&quot;&gt;[c == True]&lt;/font&gt;&lt;/span&gt;&lt;/p&gt;" style="text;whiteSpace=wrap;html=1;fontSize=9;fontFamily=Helvetica;align=center;direction=east;rotation=0;labelBackgroundColor=none;fontColor=#000000;" parent="1" vertex="1">
                    <mxGeometry x="-20" y="-405.5" width="130" height="30" as="geometry"/>
                </mxCell>
                <mxCell id="50" value="&lt;font style=&quot;font-size: 9px;&quot;&gt;13. c = i&lt;span style=&quot;font-size: 9px;&quot;&gt;s_time_to_move(&lt;/span&gt;self&lt;span style=&quot;font-size: 9px;&quot;&gt;._clock.get_time(), &lt;/span&gt;self&lt;span style=&quot;font-size: 9px;&quot;&gt;._inter_move_wait_time): boolean&lt;/span&gt;&lt;/font&gt;" style="text;html=1;strokeColor=none;fillColor=none;align=left;verticalAlign=middle;whiteSpace=wrap;rounded=0;labelBackgroundColor=none;fontFamily=Helvetica;fontSize=9;fontColor=#000000;" parent="1" vertex="1">
                    <mxGeometry x="-86" y="-666" width="407" height="30" as="geometry"/>
                </mxCell>
                <mxCell id="51" value="&lt;div style=&quot;font-size: 9px;&quot;&gt;&lt;span style=&quot;font-size: 9px;&quot;&gt;14.&amp;nbsp;&lt;/span&gt;&lt;span style=&quot;font-size: 9px;&quot;&gt;move(Game._window_width, Game._window_height)&lt;/span&gt;&lt;/div&gt;" style="text;html=1;strokeColor=none;fillColor=none;align=left;verticalAlign=middle;whiteSpace=wrap;rounded=0;labelBackgroundColor=none;fontFamily=Helvetica;fontSize=9;fontColor=#000000;labelBorderColor=none;" parent="1" vertex="1">
                    <mxGeometry x="-86" y="-649.5" width="470" height="30" as="geometry"/>
                </mxCell>
                <mxCell id="52" value="&lt;p style=&quot;margin-top: 0pt; margin-bottom: 0pt; margin-left: 0in; direction: ltr; unicode-bidi: embed; word-break: normal; font-size: 9px;&quot;&gt;&lt;span style=&quot;font-size: 9px;&quot;&gt;&lt;font style=&quot;font-size: 9px;&quot;&gt;[c == True]&lt;/font&gt;&lt;/span&gt;&lt;/p&gt;" style="text;whiteSpace=wrap;html=1;fontSize=9;fontFamily=Helvetica;align=center;direction=east;rotation=0;labelBackgroundColor=none;fontColor=#000000;" parent="1" vertex="1">
                    <mxGeometry x="-75" y="-634.5" width="130" height="30" as="geometry"/>
                </mxCell>
                <mxCell id="53" value="" style="endArrow=classic;html=1;fontFamily=Helvetica;fontSize=9;fontColor=#000000;" parent="1" edge="1">
                    <mxGeometry width="50" height="50" relative="1" as="geometry">
                        <mxPoint x="-137" y="-610" as="sourcePoint"/>
                        <mxPoint x="323.00000000000045" y="-610" as="targetPoint"/>
                    </mxGeometry>
                </mxCell>
                <mxCell id="54" value="&lt;p style=&quot;margin-top: 0pt; margin-bottom: 0pt; margin-left: 0in; direction: ltr; unicode-bidi: embed; word-break: normal; font-size: 9px;&quot;&gt;&lt;span style=&quot;font-size: 9px;&quot;&gt;&lt;font style=&quot;font-size: 9px;&quot;&gt;[c == True]&lt;/font&gt;&lt;/span&gt;&lt;/p&gt;" style="text;whiteSpace=wrap;html=1;fontSize=9;fontFamily=Helvetica;align=left;direction=east;rotation=0;labelBackgroundColor=none;fontColor=#000000;" parent="1" vertex="1">
                    <mxGeometry x="-1022" y="-569" width="52" height="30" as="geometry"/>
                </mxCell>
                <mxCell id="55" value="&lt;span style=&quot;font-size: 9px;&quot;&gt;17. self.optimize()&amp;nbsp;&amp;nbsp;&lt;/span&gt;&lt;font style=&quot;font-size: 9px;&quot;&gt;&lt;br style=&quot;font-size: 9px;&quot;&gt;&lt;/font&gt;" style="text;html=1;strokeColor=none;fillColor=none;align=left;verticalAlign=middle;whiteSpace=wrap;rounded=0;labelBackgroundColor=none;fontFamily=Helvetica;fontSize=9;fontColor=#000000;" parent="1" vertex="1">
                    <mxGeometry x="-1040" y="-573.5" width="131.5" height="15" as="geometry"/>
                </mxCell>
                <mxCell id="57" value="" style="endArrow=classic;html=1;rounded=0;fontFamily=Helvetica;fontSize=9;fontColor=#000000;" parent="1" edge="1">
                    <mxGeometry width="50" height="50" relative="1" as="geometry">
                        <mxPoint x="-290" y="-612" as="sourcePoint"/>
                        <mxPoint x="-290" y="-942" as="targetPoint"/>
                    </mxGeometry>
                </mxCell>
                <mxCell id="58" value="&lt;font style=&quot;font-size: 9px;&quot;&gt;15. c = i&lt;span style=&quot;font-size: 9px;&quot;&gt;s_time_to_move(&lt;/span&gt;self&lt;span style=&quot;font-size: 9px;&quot;&gt;._clock.get_time(), &lt;/span&gt;self&lt;span style=&quot;font-size: 9px;&quot;&gt;._inter_move_wait_time): boolean&lt;/span&gt;&lt;/font&gt;" style="text;html=1;strokeColor=none;fillColor=none;align=left;verticalAlign=middle;whiteSpace=wrap;rounded=0;labelBackgroundColor=none;fontFamily=Helvetica;fontSize=9;fontColor=#000000;" parent="1" vertex="1">
                    <mxGeometry x="-283" y="-881.25" width="407" height="30" as="geometry"/>
                </mxCell>
                <mxCell id="59" value="&lt;div style=&quot;font-size: 9px;&quot;&gt;&lt;span style=&quot;font-size: 9px;&quot;&gt;16.&amp;nbsp;&lt;/span&gt;&lt;span style=&quot;font-size: 9px;&quot;&gt;move(Game._window_width, Game._window_height)&lt;/span&gt;&lt;/div&gt;" style="text;html=1;strokeColor=none;fillColor=none;align=left;verticalAlign=middle;whiteSpace=wrap;rounded=0;labelBackgroundColor=none;fontFamily=Helvetica;fontSize=9;fontColor=#000000;labelBorderColor=none;" parent="1" vertex="1">
                    <mxGeometry x="-283" y="-867" width="283" height="30" as="geometry"/>
                </mxCell>
                <mxCell id="60" value="&lt;p style=&quot;margin-top: 0pt; margin-bottom: 0pt; margin-left: 0in; direction: ltr; unicode-bidi: embed; word-break: normal; font-size: 9px;&quot;&gt;&lt;span style=&quot;font-size: 9px;&quot;&gt;&lt;font style=&quot;font-size: 9px;&quot;&gt;[c == True]&lt;/font&gt;&lt;/span&gt;&lt;/p&gt;" style="text;whiteSpace=wrap;html=1;fontSize=9;fontFamily=Helvetica;align=left;direction=east;rotation=0;labelBackgroundColor=none;fontColor=#000000;" parent="1" vertex="1">
                    <mxGeometry x="-235" y="-852.75" width="130" height="30" as="geometry"/>
                </mxCell>
                <mxCell id="61" value="&lt;div style=&quot;font-weight: normal; line-height: 34px; font-size: 9px;&quot;&gt;&lt;p style=&quot;line-height: 1.1; font-size: 9px;&quot;&gt;18. d = self.optimizer_check(): boolean&lt;/p&gt;&lt;/div&gt;" style="text;whiteSpace=wrap;html=1;fontSize=9;fontFamily=Helvetica;fontColor=#000000;align=left;" parent="1" vertex="1">
                    <mxGeometry x="-1039" y="-563.75" width="200" height="30" as="geometry"/>
                </mxCell>
                <mxCell id="62" value="&lt;div style=&quot;font-weight: normal ; line-height: 1.1 ; font-size: 9px&quot;&gt;&lt;div style=&quot;font-size: 9px&quot;&gt;&lt;span style=&quot;line-height: 1 ; font-size: 9px&quot;&gt;19. Game._screen.blit(&lt;/span&gt;&lt;span style=&quot;font-size: 9px&quot;&gt;self&lt;/span&gt;&lt;span style=&quot;font-size: 9px&quot;&gt;._background,(&lt;/span&gt;&lt;span style=&quot;font-size: 9px&quot;&gt;0&lt;/span&gt;&lt;span style=&quot;font-size: 9px&quot;&gt;,&lt;/span&gt;&lt;span style=&quot;font-size: 9px&quot;&gt;0&lt;/span&gt;&lt;span style=&quot;font-size: 9px&quot;&gt;))&lt;/span&gt;&lt;/div&gt;&lt;div style=&quot;font-size: 9px&quot;&gt;&lt;span style=&quot;font-size: 9px&quot;&gt;&lt;span style=&quot;white-space: pre&quot;&gt;&#9;&lt;/span&gt;[d == True]&lt;br style=&quot;font-size: 9px&quot;&gt;&lt;/span&gt;&lt;/div&gt;&lt;div style=&quot;line-height: 1 ; font-size: 9px&quot;&gt;20. Game._screen.blit(&lt;span style=&quot;font-size: 9px&quot;&gt;self&lt;/span&gt;._lane_ground,(&lt;span style=&quot;font-size: 9px&quot;&gt;8&lt;/span&gt; * Game._window_width / &lt;span style=&quot;font-size: 9px&quot;&gt;24&lt;/span&gt;, &lt;span style=&quot;font-size: 9px&quot;&gt;3&lt;/span&gt; * Game._window_height / &lt;span style=&quot;font-size: 9px&quot;&gt;16&lt;/span&gt;))&lt;/div&gt;&lt;div style=&quot;line-height: 1 ; font-size: 9px&quot;&gt;&lt;div style=&quot;font-size: 9px&quot;&gt;&amp;nbsp; &lt;span style=&quot;white-space: pre ; font-size: 9px&quot;&gt;&#9;&lt;/span&gt;[d == True]&lt;/div&gt;&lt;/div&gt;&lt;/div&gt;" style="text;whiteSpace=wrap;html=1;fontSize=9;fontFamily=Helvetica;fontColor=#000000;opacity=10;labelBackgroundColor=none;align=left;" parent="1" vertex="1">
                    <mxGeometry x="-1040" y="-538.75" width="431" height="50" as="geometry"/>
                </mxCell>
                <mxCell id="63" value="&lt;div style=&quot;font-weight: normal; font-size: 9px; line-height: 34px;&quot;&gt;&lt;div style=&quot;font-size: 9px;&quot;&gt;&lt;span style=&quot;font-size: 9px;&quot;&gt;21. f = interaction(other_object):boolean&lt;/span&gt;&lt;/div&gt;&lt;/div&gt;" style="text;whiteSpace=wrap;html=1;fontSize=9;fontFamily=Helvetica;fontColor=#000000;labelBackgroundColor=none;align=left;" parent="1" vertex="1">
                    <mxGeometry x="-871" y="-164" width="249" height="27.5" as="geometry"/>
                </mxCell>
                <mxCell id="65" value="&lt;div style=&quot;font-weight: normal; font-size: 9px; line-height: 34px;&quot;&gt;&lt;div style=&quot;font-size: 9px;&quot;&gt;&lt;span style=&quot;font-size: 9px;&quot;&gt;22. self&lt;/span&gt;&lt;span style=&quot;font-size: 9px;&quot;&gt;.castle_is_gone()&lt;/span&gt;&lt;/div&gt;&lt;div style=&quot;font-size: 9px;&quot;&gt;&lt;span style=&quot;font-size: 9px;&quot;&gt;&lt;br style=&quot;font-size: 9px;&quot;&gt;&lt;/span&gt;&lt;/div&gt;&lt;/div&gt;" style="text;whiteSpace=wrap;html=1;fontSize=9;fontFamily=Helvetica;fontColor=#000000;labelBackgroundColor=none;align=left;" parent="1" vertex="1">
                    <mxGeometry x="-1039" y="-508.75" width="370" height="30" as="geometry"/>
                </mxCell>
                <mxCell id="66" value="&lt;p style=&quot;margin-top: 0pt; margin-bottom: 0pt; margin-left: 0in; direction: ltr; unicode-bidi: embed; word-break: normal; font-size: 9px;&quot;&gt;&lt;span style=&quot;font-size: 9px;&quot;&gt;&lt;font style=&quot;font-size: 9px;&quot;&gt;[f == True]&lt;/font&gt;&lt;/span&gt;&lt;/p&gt;" style="text;whiteSpace=wrap;html=1;fontSize=9;fontFamily=Helvetica;align=left;direction=east;rotation=0;labelBackgroundColor=none;fontColor=#000000;" parent="1" vertex="1">
                    <mxGeometry x="-1018" y="-486.75" width="130" height="30" as="geometry"/>
                </mxCell>
                <mxCell id="67" value="&lt;div style=&quot;font-weight: normal; font-size: 9px; line-height: 34px;&quot;&gt;&lt;div style=&quot;font-size: 9px;&quot;&gt;&lt;span style=&quot;font-size: 9px;&quot;&gt;23. f = interaction(other_object):boolean&lt;/span&gt;&lt;/div&gt;&lt;/div&gt;" style="text;whiteSpace=wrap;html=1;fontSize=9;fontFamily=Helvetica;fontColor=#000000;labelBackgroundColor=none;align=left;" parent="1" vertex="1">
                    <mxGeometry x="-220" y="-180" width="255" height="40" as="geometry"/>
                </mxCell>
                <mxCell id="68" value="&lt;div style=&quot;font-weight: normal; font-size: 9px; line-height: 34px;&quot;&gt;&lt;div style=&quot;font-size: 9px;&quot;&gt;&lt;span style=&quot;font-size: 9px;&quot;&gt;24. f = interaction(other_object):boolean&lt;/span&gt;&lt;/div&gt;&lt;/div&gt;" style="text;whiteSpace=wrap;html=1;fontSize=9;fontFamily=Helvetica;fontColor=#000000;labelBackgroundColor=none;" parent="1" vertex="1">
                    <mxGeometry x="-12" y="-386.75" width="257" height="40" as="geometry"/>
                </mxCell>
                <mxCell id="69" value="&lt;div style=&quot;font-weight: normal; font-size: 9px; line-height: 34px;&quot;&gt;&lt;div style=&quot;font-size: 9px;&quot;&gt;&lt;span style=&quot;font-size: 9px;&quot;&gt;25. f = interaction(other_object):boolean&lt;/span&gt;&lt;/div&gt;&lt;/div&gt;" style="text;whiteSpace=wrap;html=1;fontSize=9;fontFamily=Helvetica;fontColor=#000000;labelBackgroundColor=none;" parent="1" vertex="1">
                    <mxGeometry x="-82" y="-608.75" width="253" height="40" as="geometry"/>
                </mxCell>
                <mxCell id="71" value="&lt;div style=&quot;font-weight: normal; line-height: 34px; font-size: 9px;&quot;&gt;&lt;div style=&quot;font-size: 9px;&quot;&gt;&lt;span style=&quot;font-size: 9px;&quot;&gt;25.1 e = rect_control(&lt;/span&gt;&lt;span style=&quot;font-size: 9px;&quot;&gt;self&lt;/span&gt;&lt;span style=&quot;font-size: 9px;&quot;&gt;._defense_rect): boolean&lt;/span&gt;&lt;/div&gt;&lt;/div&gt;" style="text;whiteSpace=wrap;html=1;fontSize=9;fontFamily=Helvetica;fontColor=#000000;labelBackgroundColor=none;" parent="1" vertex="1">
                    <mxGeometry x="-103" y="-1090" width="303" height="50" as="geometry"/>
                </mxCell>
                <mxCell id="72" value="&lt;div style=&quot;font-weight: normal; font-size: 9px; line-height: 34px;&quot;&gt;&lt;div style=&quot;font-size: 9px;&quot;&gt;&lt;span style=&quot;font-size: 9px;&quot;&gt;25.2 hp_control(&lt;/span&gt;&lt;span style=&quot;font-size: 9px;&quot;&gt;self&lt;/span&gt;&lt;span style=&quot;font-size: 9px;&quot;&gt;._damage)&lt;/span&gt;&lt;/div&gt;&lt;/div&gt;" style="text;whiteSpace=wrap;html=1;fontSize=9;fontFamily=Helvetica;fontColor=#000000;labelBackgroundColor=none;" parent="1" vertex="1">
                    <mxGeometry x="-103" y="-1076" width="480" height="46" as="geometry"/>
                </mxCell>
                <mxCell id="73" value="&lt;p style=&quot;margin-top: 0pt; margin-bottom: 0pt; margin-left: 0in; direction: ltr; unicode-bidi: embed; word-break: normal; font-size: 9px;&quot;&gt;&lt;span style=&quot;font-size: 9px;&quot;&gt;&lt;font style=&quot;font-size: 9px;&quot;&gt;[e == True]&lt;/font&gt;&lt;/span&gt;&lt;/p&gt;" style="text;whiteSpace=wrap;html=1;fontSize=9;fontFamily=Helvetica;align=center;direction=east;rotation=0;labelBackgroundColor=none;fontColor=#000000;" parent="1" vertex="1">
                    <mxGeometry x="-97" y="-1050" width="130" height="30" as="geometry"/>
                </mxCell>
                <mxCell id="74" value="&lt;div style=&quot;font-weight: normal; font-size: 9px; line-height: 34px;&quot;&gt;&lt;div style=&quot;font-size: 9px;&quot;&gt;&lt;span style=&quot;font-size: 9px;&quot;&gt;26. self&lt;/span&gt;&lt;span style=&quot;font-size: 9px;&quot;&gt;.insertion_to_remove_object_list(index)&lt;/span&gt;&lt;/div&gt;&lt;/div&gt;" style="text;whiteSpace=wrap;html=1;fontSize=9;fontFamily=Helvetica;fontColor=#000000;labelBackgroundColor=none;align=left;" parent="1" vertex="1">
                    <mxGeometry x="-1039" y="-487.75" width="220" height="50" as="geometry"/>
                </mxCell>
                <mxCell id="75" value="&lt;p style=&quot;margin-top: 0pt; margin-bottom: 0pt; margin-left: 0in; direction: ltr; unicode-bidi: embed; word-break: normal; font-size: 9px;&quot;&gt;&lt;span style=&quot;font-size: 9px;&quot;&gt;&lt;font style=&quot;font-size: 9px;&quot;&gt;[f == True]&lt;/font&gt;&lt;/span&gt;&lt;/p&gt;" style="text;whiteSpace=wrap;html=1;fontSize=9;fontFamily=Helvetica;align=left;direction=east;rotation=0;labelBackgroundColor=none;fontColor=#000000;" parent="1" vertex="1">
                    <mxGeometry x="-1017" y="-464.75" width="130" height="30" as="geometry"/>
                </mxCell>
                <mxCell id="77" value="&lt;div style=&quot;font-weight: normal; font-size: 9px; line-height: 34px;&quot;&gt;&lt;div style=&quot;font-size: 9px;&quot;&gt;&lt;span style=&quot;font-size: 9px;&quot;&gt;27. f = interaction(other_object):boolean&lt;/span&gt;&lt;/div&gt;&lt;/div&gt;" style="text;whiteSpace=wrap;html=1;fontSize=9;fontFamily=Helvetica;fontColor=#000000;labelBackgroundColor=none;align=left;" parent="1" vertex="1">
                    <mxGeometry x="-282" y="-852.75" width="265" height="40" as="geometry"/>
                </mxCell>
                <mxCell id="78" style="edgeStyle=none;rounded=0;html=1;exitX=0;exitY=0.5;exitDx=0;exitDy=0;entryX=0.75;entryY=0;entryDx=0;entryDy=0;fontFamily=Helvetica;fontSize=9;fontColor=#000000;endArrow=none;endFill=0;" parent="1" edge="1">
                    <mxGeometry relative="1" as="geometry">
                        <Array as="points">
                            <mxPoint x="-727" y="-1000"/>
                            <mxPoint x="-727" y="-1140"/>
                            <mxPoint x="-297" y="-1140"/>
                        </Array>
                        <mxPoint x="-357" y="-1000" as="sourcePoint"/>
                        <mxPoint x="-297" y="-1040" as="targetPoint"/>
                    </mxGeometry>
                </mxCell>
                <mxCell id="79" value="27.1. g = self.is_dead(): boolean" style="text;html=1;align=left;verticalAlign=middle;resizable=0;points=[];autosize=1;strokeColor=none;fillColor=none;fontSize=9;fontFamily=Helvetica;fontColor=#000000;" parent="1" vertex="1">
                    <mxGeometry x="-705" y="-1130" width="140" height="20" as="geometry"/>
                </mxCell>
                <mxCell id="80" value="" style="endArrow=classic;html=1;rounded=0;fontFamily=Helvetica;fontSize=9;fontColor=#000000;" parent="1" edge="1">
                    <mxGeometry width="50" height="50" relative="1" as="geometry">
                        <mxPoint x="-714" y="-1130" as="sourcePoint"/>
                        <mxPoint x="-714" y="-1010" as="targetPoint"/>
                    </mxGeometry>
                </mxCell>
                <mxCell id="83" value="&lt;font style=&quot;font-size: 9px;&quot;&gt;27.2. h =&amp;nbsp;&lt;span style=&quot;font-size: 9px;&quot;&gt;rect_control(&lt;/span&gt;&lt;span style=&quot;font-size: 9px;&quot;&gt;self&lt;/span&gt;&lt;span style=&quot;font-size: 9px;&quot;&gt;._attack_rect):boolean&lt;/span&gt;&lt;/font&gt;" style="text;html=1;align=left;verticalAlign=middle;resizable=0;points=[];autosize=1;strokeColor=none;fillColor=none;fontSize=9;fontFamily=Helvetica;fontColor=#000000;" parent="1" vertex="1">
                    <mxGeometry x="-1391" y="-587" width="210" height="20" as="geometry"/>
                </mxCell>
                <mxCell id="84" value="&lt;p style=&quot;margin-top: 0pt; margin-bottom: 0pt; margin-left: 0in; direction: ltr; unicode-bidi: embed; word-break: normal; font-size: 9px;&quot;&gt;&lt;span style=&quot;font-size: 9px;&quot;&gt;&lt;font style=&quot;font-size: 9px;&quot;&gt;[g == False]&lt;/font&gt;&lt;/span&gt;&lt;/p&gt;" style="text;whiteSpace=wrap;html=1;fontSize=9;fontFamily=Helvetica;align=center;direction=east;rotation=0;labelBackgroundColor=none;fontColor=#000000;" parent="1" vertex="1">
                    <mxGeometry x="-1395" y="-576.75" width="130" height="30" as="geometry"/>
                </mxCell>
                <mxCell id="85" value="&lt;div style=&quot;line-height: 3.2; font-size: 9px;&quot;&gt;27.3. hp_control(self._damage): boolean&lt;/div&gt;" style="text;html=1;align=center;verticalAlign=middle;resizable=0;points=[];autosize=1;strokeColor=none;fillColor=none;fontSize=9;fontFamily=Helvetica;fontColor=#000000;" parent="1" vertex="1">
                    <mxGeometry x="-1399" y="-566.5" width="180" height="30" as="geometry"/>
                </mxCell>
                <mxCell id="86" value="&lt;p style=&quot;margin-top: 0pt; margin-bottom: 0pt; margin-left: 0in; direction: ltr; unicode-bidi: embed; word-break: normal; font-size: 9px;&quot;&gt;&lt;span style=&quot;font-size: 9px;&quot;&gt;&lt;font style=&quot;font-size: 9px;&quot;&gt;[h == False]&lt;/font&gt;&lt;/span&gt;&lt;/p&gt;" style="text;whiteSpace=wrap;html=1;fontSize=9;fontFamily=Helvetica;align=center;direction=east;rotation=0;labelBackgroundColor=none;fontColor=#000000;" parent="1" vertex="1">
                    <mxGeometry x="-1394" y="-550.75" width="130" height="30" as="geometry"/>
                </mxCell>
                <mxCell id="87" value="" style="endArrow=classic;html=1;rounded=0;fontFamily=Helvetica;fontSize=9;fontColor=#000000;" parent="1" edge="1">
                    <mxGeometry width="50" height="50" relative="1" as="geometry">
                        <mxPoint x="-1420" y="-920" as="sourcePoint"/>
                        <mxPoint x="-1420" y="-10" as="targetPoint"/>
                    </mxGeometry>
                </mxCell>
                <mxCell id="88" value="&lt;div style=&quot;font-weight: normal; font-size: 9px; line-height: 34px;&quot;&gt;&lt;div style=&quot;font-size: 9px;&quot;&gt;&lt;span style=&quot;font-size: 9px;&quot;&gt;28. self&lt;/span&gt;&lt;span style=&quot;font-size: 9px;&quot;&gt;.insertion_to_remove_object_list(index)&lt;/span&gt;&lt;/div&gt;&lt;/div&gt;" style="text;whiteSpace=wrap;html=1;fontSize=9;fontFamily=Helvetica;fontColor=#000000;labelBackgroundColor=none;align=left;" parent="1" vertex="1">
                    <mxGeometry x="-1039" y="-465.75" width="220" height="50" as="geometry"/>
                </mxCell>
                <mxCell id="89" value="&lt;p style=&quot;margin-top: 0pt; margin-bottom: 0pt; margin-left: 0in; direction: ltr; unicode-bidi: embed; word-break: normal; font-size: 9px;&quot;&gt;&lt;span style=&quot;font-size: 9px;&quot;&gt;&lt;font style=&quot;font-size: 9px;&quot;&gt;[f == True]&lt;/font&gt;&lt;/span&gt;&lt;/p&gt;" style="text;whiteSpace=wrap;html=1;fontSize=9;fontFamily=Helvetica;align=left;direction=east;rotation=0;labelBackgroundColor=none;fontColor=#000000;" parent="1" vertex="1">
                    <mxGeometry x="-1015.5" y="-440.75" width="130" height="30" as="geometry"/>
                </mxCell>
                <mxCell id="90" value="&lt;div style=&quot;font-weight: normal; font-size: 9px; line-height: 34px;&quot;&gt;&lt;div style=&quot;font-size: 9px;&quot;&gt;&lt;span style=&quot;font-size: 9px;&quot;&gt;29. self&lt;/span&gt;&lt;span style=&quot;font-size: 9px;&quot;&gt;.remove_objects()&lt;/span&gt;&lt;/div&gt;&lt;/div&gt;" style="text;whiteSpace=wrap;html=1;fontSize=9;fontFamily=Helvetica;fontColor=#000000;labelBackgroundColor=none;align=left;" parent="1" vertex="1">
                    <mxGeometry x="-1038" y="-440.75" width="220" height="50" as="geometry"/>
                </mxCell>
                <mxCell id="91" value="&lt;font style=&quot;font-size: 9px;&quot;&gt;30. draw&lt;span style=&quot;font-size: 9px;&quot;&gt;(Game._screen, &lt;/span&gt;&lt;span style=&quot;font-size: 9px;&quot;&gt;self&lt;/span&gt;&lt;span style=&quot;font-size: 9px;&quot;&gt;._gold_object&lt;/span&gt;&lt;span style=&quot;font-size: 9px;&quot;&gt;)&lt;/span&gt;&lt;/font&gt;" style="text;html=1;align=left;verticalAlign=middle;resizable=0;points=[];autosize=1;strokeColor=none;fillColor=none;fontSize=9;fontFamily=Helvetica;fontColor=#000000;" parent="1" vertex="1">
                    <mxGeometry x="-871" y="-136.5" width="190" height="20" as="geometry"/>
                </mxCell>
                <mxCell id="92" value="&lt;font style=&quot;font-size: 9px;&quot;&gt;31. draw&lt;span style=&quot;font-size: 9px;&quot;&gt;(Game._screen, &lt;/span&gt;&lt;span style=&quot;font-size: 9px;&quot;&gt;self&lt;/span&gt;&lt;span style=&quot;font-size: 9px;&quot;&gt;._gold_object&lt;/span&gt;&lt;span style=&quot;font-size: 9px;&quot;&gt;)&lt;/span&gt;&lt;/font&gt;" style="text;html=1;align=left;verticalAlign=middle;resizable=0;points=[];autosize=1;strokeColor=none;fillColor=none;fontSize=9;fontFamily=Helvetica;fontColor=#000000;" parent="1" vertex="1">
                    <mxGeometry x="-220" y="-148" width="190" height="20" as="geometry"/>
                </mxCell>
                <mxCell id="93" value="&lt;font style=&quot;font-size: 9px;&quot;&gt;32. draw&lt;span style=&quot;font-size: 9px;&quot;&gt;(Game._screen, &lt;/span&gt;&lt;span style=&quot;font-size: 9px;&quot;&gt;self&lt;/span&gt;&lt;span style=&quot;font-size: 9px;&quot;&gt;._gold_object&lt;/span&gt;&lt;span style=&quot;font-size: 9px;&quot;&gt;)&lt;/span&gt;&lt;/font&gt;" style="text;html=1;align=left;verticalAlign=middle;resizable=0;points=[];autosize=1;strokeColor=none;fillColor=none;fontSize=9;fontFamily=Helvetica;fontColor=#000000;" parent="1" vertex="1">
                    <mxGeometry x="-12" y="-356.75" width="190" height="20" as="geometry"/>
                </mxCell>
                <mxCell id="94" value="&lt;font style=&quot;font-size: 9px;&quot;&gt;33. draw&lt;span style=&quot;font-size: 9px;&quot;&gt;(Game._screen, &lt;/span&gt;&lt;span style=&quot;font-size: 9px;&quot;&gt;self&lt;/span&gt;&lt;span style=&quot;font-size: 9px;&quot;&gt;._gold_object&lt;/span&gt;&lt;span style=&quot;font-size: 9px;&quot;&gt;)&lt;/span&gt;&lt;/font&gt;" style="text;html=1;align=center;verticalAlign=middle;resizable=0;points=[];autosize=1;strokeColor=none;fillColor=none;fontSize=9;fontFamily=Helvetica;fontColor=#000000;" parent="1" vertex="1">
                    <mxGeometry x="-88" y="-578.5" width="190" height="20" as="geometry"/>
                </mxCell>
                <mxCell id="95" value="&lt;font style=&quot;font-size: 9px;&quot;&gt;34. draw&lt;span style=&quot;font-size: 9px;&quot;&gt;(Game._screen, &lt;/span&gt;&lt;span style=&quot;font-size: 9px;&quot;&gt;self&lt;/span&gt;&lt;span style=&quot;font-size: 9px;&quot;&gt;._gold_object&lt;/span&gt;&lt;span style=&quot;font-size: 9px;&quot;&gt;)&lt;/span&gt;&lt;/font&gt;" style="text;html=1;align=left;verticalAlign=middle;resizable=0;points=[];autosize=1;strokeColor=none;fillColor=none;fontSize=9;fontFamily=Helvetica;fontColor=#000000;" parent="1" vertex="1">
                    <mxGeometry x="-282" y="-823.75" width="190" height="20" as="geometry"/>
                </mxCell>
                <mxCell id="98" value="" style="endArrow=classic;html=1;rounded=0;fontFamily=Helvetica;fontSize=9;fontColor=#000000;" parent="1" edge="1">
                    <mxGeometry width="50" height="50" relative="1" as="geometry">
                        <mxPoint x="270" y="-1030" as="sourcePoint"/>
                        <mxPoint x="-200" y="-1030" as="targetPoint"/>
                    </mxGeometry>
                </mxCell>
                <mxCell id="99" value="&lt;font style=&quot;font-size: 9px;&quot;&gt;&lt;span style=&quot;font-size: 9px;&quot;&gt;35. selected_object_shadow_draw(Game._screen, Game._window_width, Game._window_height, self._selected_object)&lt;/span&gt;&lt;br style=&quot;font-size: 9px;&quot;&gt;&lt;/font&gt;&lt;font style=&quot;font-size: 9px;&quot;&gt;&lt;br style=&quot;font-size: 9px;&quot;&gt;&lt;/font&gt;" style="text;html=1;strokeColor=none;fillColor=none;align=left;verticalAlign=middle;whiteSpace=wrap;rounded=0;labelBackgroundColor=none;labelBorderColor=none;fontFamily=Helvetica;fontSize=9;fontColor=#000000;opacity=10;" parent="1" vertex="1">
                    <mxGeometry x="-219" y="-127" width="505" height="30" as="geometry"/>
                </mxCell>
                <mxCell id="100" style="edgeStyle=none;rounded=0;html=1;exitX=1;exitY=0.5;exitDx=0;exitDy=0;entryX=0;entryY=0.75;entryDx=0;entryDy=0;fontFamily=Helvetica;fontSize=9;fontColor=#000000;endArrow=none;endFill=0;" parent="1" source="3" target="3" edge="1">
                    <mxGeometry relative="1" as="geometry">
                        <Array as="points">
                            <mxPoint x="-360" y="100"/>
                            <mxPoint x="-360" y="240"/>
                            <mxPoint x="-670" y="240"/>
                            <mxPoint x="-670" y="120"/>
                        </Array>
                    </mxGeometry>
                </mxCell>
                <mxCell id="101" value="&lt;div style=&quot;line-height: 1.8; font-size: 9px;&quot;&gt;&lt;div style=&quot;font-size: 9px;&quot;&gt;30.1. screen.blit(&lt;span style=&quot;font-size: 9px;&quot;&gt;self&lt;/span&gt;._castle_image_template, &lt;span style=&quot;font-size: 9px;&quot;&gt;self&lt;/span&gt;._castle_rect)&lt;/div&gt;&lt;div style=&quot;font-size: 9px;&quot;&gt;30.2. screen.blit(&lt;span style=&quot;font-size: 9px;&quot;&gt;self&lt;/span&gt;._hp_value, &lt;span style=&quot;font-size: 9px;&quot;&gt;self&lt;/span&gt;._hp_value_rect)&lt;/div&gt;&lt;/div&gt;" style="text;html=1;align=left;verticalAlign=middle;resizable=0;points=[];autosize=1;strokeColor=none;fillColor=none;fontSize=9;fontFamily=Helvetica;fontColor=#000000;labelBackgroundColor=none;textOpacity=80;" parent="1" vertex="1">
                    <mxGeometry x="-656" y="160" width="270" height="40" as="geometry"/>
                </mxCell>
                <mxCell id="102" value="" style="endArrow=classic;html=1;rounded=0;fontFamily=Helvetica;fontSize=9;fontColor=#000000;" parent="1" edge="1">
                    <mxGeometry width="50" height="50" relative="1" as="geometry">
                        <mxPoint x="-660" y="140" as="sourcePoint"/>
                        <mxPoint x="-660" y="230" as="targetPoint"/>
                    </mxGeometry>
                </mxCell>
                <mxCell id="103" style="edgeStyle=none;rounded=0;html=1;exitX=1;exitY=0.75;exitDx=0;exitDy=0;fontFamily=Helvetica;fontSize=9;fontColor=#000000;endArrow=none;endFill=0;" parent="1" source="4" edge="1">
                    <mxGeometry relative="1" as="geometry">
                        <mxPoint x="-35" y="121" as="sourcePoint"/>
                        <mxPoint x="-265" y="141" as="targetPoint"/>
                        <Array as="points">
                            <mxPoint x="160" y="121"/>
                            <mxPoint x="160" y="200"/>
                            <mxPoint x="-265" y="200"/>
                            <mxPoint x="-265" y="141"/>
                        </Array>
                    </mxGeometry>
                </mxCell>
                <mxCell id="104" value="&lt;div style=&quot;line-height: 1.8; font-size: 9px;&quot;&gt;&lt;div style=&quot;line-height: 34px; font-size: 9px;&quot;&gt;31.1. screen.blit(self._soldier_image_template, self._soldier_rect)&lt;/div&gt;&lt;/div&gt;" style="text;html=1;align=left;verticalAlign=middle;resizable=0;points=[];autosize=1;strokeColor=none;fillColor=none;fontSize=9;fontFamily=Helvetica;fontColor=#000000;labelBackgroundColor=none;textOpacity=80;" parent="1" vertex="1">
                    <mxGeometry x="-251" y="153" width="280" height="40" as="geometry"/>
                </mxCell>
                <mxCell id="105" value="" style="endArrow=classic;html=1;rounded=0;fontFamily=Helvetica;fontSize=9;fontColor=#000000;" parent="1" edge="1">
                    <mxGeometry width="50" height="50" relative="1" as="geometry">
                        <mxPoint x="-255" y="152" as="sourcePoint"/>
                        <mxPoint x="-255" y="198" as="targetPoint"/>
                    </mxGeometry>
                </mxCell>
                <mxCell id="106" value="&lt;div style=&quot;font-weight: normal ; line-height: 1.7 ; font-size: 9px&quot;&gt;&lt;div style=&quot;font-size: 9px&quot;&gt;&lt;span style=&quot;background-color: rgb(255 , 255 , 255) ; font-size: 9px&quot;&gt;32.1. screen.blit(self._menubar_image_template, self._menubar_rect)&lt;/span&gt;&lt;/div&gt;&lt;div style=&quot;font-size: 9px&quot;&gt;&lt;span style=&quot;background-color: rgb(255 , 255 , 255) ; font-size: 9px&quot;&gt;32.2. screen.blit(self._progress_amount, self._progress_amount_rect)&lt;/span&gt;&lt;/div&gt;&lt;/div&gt;" style="text;whiteSpace=wrap;html=1;fontSize=9;fontFamily=Helvetica;fontColor=#000000;" parent="1" vertex="1">
                    <mxGeometry x="513" y="-330" width="340" height="60" as="geometry"/>
                </mxCell>
                <mxCell id="107" style="edgeStyle=none;rounded=0;html=1;exitX=1;exitY=0.5;exitDx=0;exitDy=0;entryX=0.5;entryY=1;entryDx=0;entryDy=0;fontFamily=Helvetica;fontSize=9;fontColor=#000000;endArrow=none;endFill=0;" parent="1" source="5" target="5" edge="1">
                    <mxGeometry relative="1" as="geometry">
                        <Array as="points">
                            <mxPoint x="833" y="-370"/>
                            <mxPoint x="833" y="-270"/>
                            <mxPoint x="503" y="-270"/>
                            <mxPoint x="503" y="-280"/>
                        </Array>
                    </mxGeometry>
                </mxCell>
                <mxCell id="108" value="" style="endArrow=classic;html=1;rounded=0;fontFamily=Helvetica;fontSize=9;fontColor=#000000;" parent="1" edge="1">
                    <mxGeometry width="50" height="50" relative="1" as="geometry">
                        <mxPoint x="509" y="-325" as="sourcePoint"/>
                        <mxPoint x="509" y="-279" as="targetPoint"/>
                    </mxGeometry>
                </mxCell>
                <mxCell id="109" style="edgeStyle=none;rounded=0;html=1;exitX=0.75;exitY=0;exitDx=0;exitDy=0;entryX=1;entryY=0.5;entryDx=0;entryDy=0;fontFamily=Helvetica;fontSize=9;fontColor=#000000;endArrow=none;endFill=0;" parent="1" source="7" target="7" edge="1">
                    <mxGeometry relative="1" as="geometry">
                        <Array as="points">
                            <mxPoint x="523" y="-730"/>
                            <mxPoint x="940" y="-730"/>
                            <mxPoint x="940" y="-600"/>
                            <mxPoint x="860" y="-600"/>
                        </Array>
                    </mxGeometry>
                </mxCell>
                <mxCell id="110" value="&lt;div style=&quot;line-height: 1.4; font-size: 9px;&quot;&gt;&lt;div style=&quot;font-size: 9px;&quot;&gt;33.1. self._defense_image_template.set_alpha(255)&lt;/div&gt;&lt;div style=&quot;font-size: 9px;&quot;&gt;33.2. screen.blit(self._defense_image_template, self._defense_rect)&lt;/div&gt;&lt;/div&gt;" style="text;html=1;align=left;verticalAlign=middle;resizable=0;points=[];autosize=1;strokeColor=none;fillColor=none;fontSize=9;fontFamily=Helvetica;fontColor=#000000;" parent="1" vertex="1">
                    <mxGeometry x="543" y="-705" width="290" height="30" as="geometry"/>
                </mxCell>
                <mxCell id="111" value="" style="endArrow=classic;html=1;rounded=0;fontFamily=Helvetica;fontSize=9;fontColor=#000000;" parent="1" edge="1">
                    <mxGeometry width="50" height="50" relative="1" as="geometry">
                        <mxPoint x="530" y="-650" as="sourcePoint"/>
                        <mxPoint x="530" y="-707.5" as="targetPoint"/>
                    </mxGeometry>
                </mxCell>
                <mxCell id="112" value="&lt;div style=&quot;font-weight: normal; font-size: 9px; line-height: 1.3;&quot;&gt;&lt;div style=&quot;font-size: 9px;&quot;&gt;&lt;span style=&quot;background-color: rgb(255, 255, 255); font-size: 9px;&quot;&gt;&lt;span style=&quot;font-size: 9px;&quot;&gt;34.1. screen.blit(&lt;/span&gt;&lt;span style=&quot;font-size: 9px;&quot;&gt;self&lt;/span&gt;&lt;span style=&quot;font-size: 9px;&quot;&gt;._attack_image_template, &lt;/span&gt;&lt;span style=&quot;font-size: 9px;&quot;&gt;self&lt;/span&gt;&lt;span style=&quot;font-size: 9px;&quot;&gt;._attack_rect)&lt;/span&gt;&lt;/span&gt;&lt;/div&gt;&lt;div style=&quot;font-size: 9px;&quot;&gt;&lt;span style=&quot;background-color: rgb(255, 255, 255); font-size: 9px;&quot;&gt;&lt;span style=&quot;font-size: 9px;&quot;&gt;34.2. pygame.draw.rect(screen, Attack._red, &lt;/span&gt;&lt;span style=&quot;font-size: 9px;&quot;&gt;self&lt;/span&gt;&lt;span style=&quot;font-size: 9px;&quot;&gt;._red_hp_rect)&lt;/span&gt;&lt;/span&gt;&lt;/div&gt;&lt;div style=&quot;font-size: 9px;&quot;&gt;&lt;span style=&quot;background-color: rgb(255, 255, 255); font-size: 9px;&quot;&gt;&lt;span style=&quot;font-size: 9px;&quot;&gt;34.3. pygame.draw.rect(screen, Attack._green, &lt;/span&gt;&lt;span style=&quot;font-size: 9px;&quot;&gt;self&lt;/span&gt;&lt;span style=&quot;font-size: 9px;&quot;&gt;._green_hp_rect)&lt;/span&gt;&lt;/span&gt;&lt;/div&gt;&lt;div style=&quot;font-size: 9px;&quot;&gt;&lt;span style=&quot;background-color: rgb(255, 255, 255); font-size: 9px;&quot;&gt;&lt;span style=&quot;font-size: 9px;&quot;&gt;34.4. screen.blit(&lt;/span&gt;&lt;span style=&quot;font-size: 9px;&quot;&gt;self&lt;/span&gt;&lt;span style=&quot;font-size: 9px;&quot;&gt;._hp_rendered, &lt;/span&gt;&lt;span style=&quot;font-size: 9px;&quot;&gt;self&lt;/span&gt;&lt;span style=&quot;font-size: 9px;&quot;&gt;._hp_rendered_rect)&lt;/span&gt;&lt;/span&gt;&lt;/div&gt;&lt;/div&gt;" style="text;whiteSpace=wrap;html=1;fontSize=9;fontFamily=Helvetica;fontColor=#000000;" parent="1" vertex="1">
                    <mxGeometry x="-705" y="-1119" width="373" height="70" as="geometry"/>
                </mxCell>
                <mxCell id="115" value="&lt;div style=&quot;line-height: 18px; font-size: 9px;&quot;&gt;35.1 shadow_draw(self, screen, window_width, window_height, soldier_topright)&lt;/div&gt;" style="text;html=1;align=center;verticalAlign=middle;resizable=0;points=[];autosize=1;strokeColor=none;fillColor=none;fontFamily=Helvetica;fontColor=#000000;fontSize=9;" vertex="1" parent="1">
                    <mxGeometry x="-63" y="45" width="340" height="20" as="geometry"/>
                </mxCell>
                <mxCell id="118" value="" style="endArrow=classic;html=1;rounded=0;fontFamily=Helvetica;fontSize=9;fontColor=#000000;" edge="1" parent="1">
                    <mxGeometry width="50" height="50" relative="1" as="geometry">
                        <mxPoint x="-120" y="69" as="sourcePoint"/>
                        <mxPoint x="320" y="69" as="targetPoint"/>
                    </mxGeometry>
                </mxCell>
                <mxCell id="121" value="" style="endArrow=classic;html=1;rounded=0;fontFamily=Helvetica;fontSize=9;fontColor=#000000;" edge="1" parent="1">
                    <mxGeometry width="50" height="50" relative="1" as="geometry">
                        <mxPoint x="500" y="-430" as="sourcePoint"/>
                        <mxPoint x="500" y="-540" as="targetPoint"/>
                    </mxGeometry>
                </mxCell>
                <mxCell id="122" value="&lt;font style=&quot;font-size: 9px;&quot;&gt;35.1.1.&amp;nbsp;&lt;span style=&quot;font-size: 9px;&quot;&gt;shadow_draw&lt;/span&gt;&lt;span style=&quot;font-size: 9px;&quot;&gt;(&lt;/span&gt;&lt;span style=&quot;font-size: 9px;&quot;&gt;screen&lt;/span&gt;&lt;span style=&quot;font-size: 9px;&quot;&gt;)&lt;/span&gt;&lt;span style=&quot;font-size: 9px;&quot;&gt;&amp;nbsp;&lt;/span&gt;&lt;/font&gt;" style="text;html=1;align=left;verticalAlign=middle;resizable=0;points=[];autosize=1;strokeColor=none;fillColor=none;fontSize=9;fontFamily=Helvetica;fontColor=#000000;" vertex="1" parent="1">
                    <mxGeometry x="505" y="-510.75" width="140" height="20" as="geometry"/>
                </mxCell>
                <mxCell id="123" value="&lt;div style=&quot;line-height: 1.4; font-size: 9px;&quot;&gt;&lt;div style=&quot;font-size: 9px;&quot;&gt;35.1.1.1. self._defense_image_template.set_alpha(80)&lt;/div&gt;&lt;div style=&quot;font-size: 9px;&quot;&gt;35.1.1.2. screen.blit(self._defense_image_template, self._defense_rect)&lt;/div&gt;&lt;/div&gt;" style="text;html=1;align=left;verticalAlign=middle;resizable=0;points=[];autosize=1;strokeColor=none;fillColor=none;fontSize=9;fontFamily=Helvetica;fontColor=#000000;" vertex="1" parent="1">
                    <mxGeometry x="543" y="-677.5" width="300" height="30" as="geometry"/>
                </mxCell>
                <mxCell id="124" value="&lt;font style=&quot;font-size: 9px;&quot;&gt;36.&amp;nbsp;self.winning_control()&lt;/font&gt;" style="text;html=1;align=left;verticalAlign=middle;resizable=0;points=[];autosize=1;strokeColor=none;fillColor=none;fontSize=9;fontFamily=Helvetica;fontColor=#000000;" vertex="1" parent="1">
                    <mxGeometry x="-1038" y="-410.75" width="120" height="20" as="geometry"/>
                </mxCell>
                <mxCell id="125" value="&lt;font style=&quot;font-size: 9px;&quot;&gt;36.1. h =&amp;nbsp;&lt;span style=&quot;font-size: 9px;&quot;&gt;winning_control&lt;/span&gt;&lt;span style=&quot;font-size: 9px;&quot;&gt;(): boolean&lt;/span&gt;&lt;/font&gt;" style="text;html=1;align=left;verticalAlign=middle;resizable=0;points=[];autosize=1;strokeColor=none;fillColor=none;fontSize=9;fontFamily=Helvetica;fontColor=#000000;" vertex="1" parent="1">
                    <mxGeometry x="-13" y="-336.75" width="160" height="20" as="geometry"/>
                </mxCell>
                <mxCell id="127" value="&lt;font style=&quot;font-size: 9px;&quot;&gt;36.2.&amp;nbsp;self.win_status_change()&lt;span style=&quot;font-size: 9px;&quot;&gt;&amp;nbsp;&lt;/span&gt;&lt;/font&gt;" style="text;html=1;align=left;verticalAlign=middle;resizable=0;points=[];autosize=1;strokeColor=none;fillColor=none;fontSize=9;fontFamily=Helvetica;fontColor=#000000;" vertex="1" parent="1">
                    <mxGeometry x="-1038" y="-392.75" width="140" height="20" as="geometry"/>
                </mxCell>
                <mxCell id="128" value="&lt;p style=&quot;margin-top: 0pt; margin-bottom: 0pt; margin-left: 0in; direction: ltr; unicode-bidi: embed; word-break: normal; font-size: 9px;&quot;&gt;&lt;span style=&quot;font-size: 9px;&quot;&gt;&lt;font style=&quot;font-size: 9px;&quot;&gt;[h == True]&lt;/font&gt;&lt;/span&gt;&lt;/p&gt;" style="text;whiteSpace=wrap;html=1;fontSize=9;fontFamily=Helvetica;align=left;direction=east;rotation=0;labelBackgroundColor=none;fontColor=#000000;" vertex="1" parent="1">
                    <mxGeometry x="-1020" y="-382.25" width="130" height="22.5" as="geometry"/>
                </mxCell>
                <mxCell id="129" value="&lt;div style=&quot;font-size: 9px; line-height: 1.5;&quot;&gt;&lt;div style=&quot;font-size: 9px;&quot;&gt;        &lt;span style=&quot;font-size: 9px;&quot;&gt;37. self&lt;/span&gt;.&lt;span style=&quot;font-size: 9px;&quot;&gt;create_accelerator_up&lt;/span&gt;()&lt;/div&gt;&lt;div style=&quot;font-size: 9px;&quot;&gt;        &lt;span style=&quot;font-size: 9px;&quot;&gt;38. self&lt;/span&gt;.&lt;span style=&quot;font-size: 9px;&quot;&gt;inter_create_wait_time&lt;/span&gt;()&lt;/div&gt;&lt;div style=&quot;font-size: 9px;&quot;&gt;        &lt;span style=&quot;font-size: 9px;&quot;&gt;39. pygame&lt;/span&gt;.&lt;span style=&quot;font-size: 9px;&quot;&gt;display&lt;/span&gt;.&lt;span style=&quot;font-size: 9px;&quot;&gt;flip&lt;/span&gt;()       &lt;/div&gt;&lt;/div&gt;" style="text;html=1;align=left;verticalAlign=middle;resizable=0;points=[];autosize=1;strokeColor=none;fillColor=none;fontSize=9;fontFamily=Helvetica;fontColor=#000000;textOpacity=80;" vertex="1" parent="1">
                    <mxGeometry x="-1037" y="-366.75" width="140" height="50" as="geometry"/>
                </mxCell>
            </root>
        </mxGraphModel>
    </diagram>
</mxfile>